<svg id="icon-mail" xmlns="http://www.w3.org/2000/svg" viewBox="0 0 100 100"><defs><style>.cls-1{fill:#768d99;}</style></defs><title>icon--location</title><path class="cls-1" d="M64.61,39.32a15.4,15.4,0,0,0-30.81,0s-.81,6.34,6.56,16c6.13,8.08,8.45,16.65,8.45,19.08v.68a.59.59,0,0,0,.23-.36.6.6,0,0,0,.23.36v-.69a48.36,48.36,0,0,1,8.64-19.07C65.28,45.66,64.61,39.32,64.61,39.32ZM49.2,47.64a8.8,8.8,0,1,1,8.8-8.8A8.8,8.8,0,0,1,49.2,47.64Z"/><path class="cls-1" d="M50,95A45,45,0,1,1,95,50,45.05,45.05,0,0,1,50,95Zm0-83.11A38.12,38.12,0,1,0,88.12,50,38.16,38.16,0,0,0,50,11.88Z"/></svg>