<svg id="icon-mail" xmlns="http://www.w3.org/2000/svg" viewBox="0 0 100 100"><defs><style>.cls-1{fill:#768d99;}</style></defs><title>icon--email</title><path class="cls-1" d="M65.41,33.84H34.59a9.38,9.38,0,0,0-9.38,9.38V56.78a9.38,9.38,0,0,0,9.38,9.38H65.41a9.38,9.38,0,0,0,9.38-9.38V43.22A9.38,9.38,0,0,0,65.41,33.84Zm7.2,27.56a1,1,0,0,1-.72.34h-.05a1,1,0,0,1-.69-.27L58.09,49.59,50.65,55.8a1,1,0,0,1-1.33,0l-7.42-6.2L29.43,61a1.06,1.06,0,0,1-.7.27h0a1,1,0,0,1-.72-.34,1,1,0,0,1-.27-.69v-.05a1,1,0,0,1,.34-.72L40.29,48.27,29,38.82a1,1,0,0,1,1.33-1.59l1,.8L50,53.66,68.75,38l1-.8A1,1,0,1,1,71,38.79L59.7,48.25,72.54,59.94a1,1,0,0,1,.34.71v.05A1,1,0,0,1,72.61,61.41Z"/><path class="cls-1" d="M50,95A45,45,0,1,1,95,50,45.05,45.05,0,0,1,50,95Zm0-83.11A38.12,38.12,0,1,0,88.12,50,38.16,38.16,0,0,0,50,11.88Z"/></svg>