<svg id="icon-mail" xmlns="http://www.w3.org/2000/svg" viewBox="0 0 100 100"><defs><style>.cls-1{fill:#768d99;}</style></defs><title>icon--phone</title><path class="cls-1" d="M50,27.64c-16.41,0-29.71,7.48-29.71,16.71,0,4.18,2.74,4.84,7.25,4.31a20.65,20.65,0,0,1,5.76-8.12,25.37,25.37,0,0,1,16.7-6,25.37,25.37,0,0,1,16.69,6,20.61,20.61,0,0,1,5.76,8.12c4.52.53,7.25-.12,7.25-4.31C79.71,35.12,66.41,27.64,50,27.64Z"/><path class="cls-1" d="M50,36.78c-12,0-21.66,8.46-21.66,18.89S38,66.78,50,66.78s21.66-.68,21.66-11.11S62,36.78,50,36.78Zm0,20.57c-5.28,0-9.56-3.54-9.56-7.9s4.28-7.9,9.56-7.9,9.55,3.54,9.55,7.9S55.28,57.35,50,57.35Z"/><path class="cls-1" d="M50,94.52a45,45,0,1,1,45-45A45.05,45.05,0,0,1,50,94.52ZM50,11.4A38.12,38.12,0,1,0,88.12,49.52,38.16,38.16,0,0,0,50,11.4Z"/></svg>